<mxfile host="app.diagrams.net" modified="2022-11-23T14:32:55.135Z" agent="5.0 (Windows NT 10.0; Win64; x64) AppleWebKit/537.36 (KHTML, like Gecko) Chrome/105.0.0.0 Safari/537.36" version="20.6.0" etag="YLOT6Sz7LdDnan6BM4Rf" type="github">
  <diagram id="rbzb1IYH0YXPm8ha6Nh5" name="第 1 页">
    <mxGraphModel dx="870" dy="594" grid="1" gridSize="10" guides="1" tooltips="1" connect="1" arrows="1" fold="1" page="1" pageScale="1" pageWidth="827" pageHeight="1169" math="0" shadow="0">
      <root>
        <mxCell id="0" />
        <mxCell id="1" parent="0" />
        <mxCell id="4RKRX7I9rkrcG7WYynrb-13" style="edgeStyle=none;rounded=0;orthogonalLoop=1;jettySize=auto;html=1;exitX=0.5;exitY=1;exitDx=0;exitDy=0;entryX=0.5;entryY=0;entryDx=0;entryDy=0;" edge="1" parent="1" source="4RKRX7I9rkrcG7WYynrb-1" target="4RKRX7I9rkrcG7WYynrb-5">
          <mxGeometry relative="1" as="geometry" />
        </mxCell>
        <mxCell id="4RKRX7I9rkrcG7WYynrb-1" value="openat 调用" style="rounded=0;whiteSpace=wrap;html=1;" vertex="1" parent="1">
          <mxGeometry x="140" y="120" width="130" height="30" as="geometry" />
        </mxCell>
        <mxCell id="4RKRX7I9rkrcG7WYynrb-2" value="" style="endArrow=none;dashed=1;html=1;rounded=0;" edge="1" parent="1">
          <mxGeometry width="50" height="50" relative="1" as="geometry">
            <mxPoint x="320" y="480" as="sourcePoint" />
            <mxPoint x="320" y="80" as="targetPoint" />
          </mxGeometry>
        </mxCell>
        <mxCell id="4RKRX7I9rkrcG7WYynrb-3" value="用户进程" style="text;html=1;strokeColor=none;fillColor=none;align=center;verticalAlign=middle;whiteSpace=wrap;rounded=0;" vertex="1" parent="1">
          <mxGeometry x="175" y="80" width="60" height="30" as="geometry" />
        </mxCell>
        <mxCell id="4RKRX7I9rkrcG7WYynrb-4" value="文件系统服务" style="text;html=1;strokeColor=none;fillColor=none;align=center;verticalAlign=middle;whiteSpace=wrap;rounded=0;" vertex="1" parent="1">
          <mxGeometry x="385" y="80" width="100" height="30" as="geometry" />
        </mxCell>
        <mxCell id="4RKRX7I9rkrcG7WYynrb-7" style="rounded=0;orthogonalLoop=1;jettySize=auto;html=1;exitX=1;exitY=0.75;exitDx=0;exitDy=0;entryX=0;entryY=0.25;entryDx=0;entryDy=0;" edge="1" parent="1" source="4RKRX7I9rkrcG7WYynrb-5" target="4RKRX7I9rkrcG7WYynrb-6">
          <mxGeometry relative="1" as="geometry" />
        </mxCell>
        <mxCell id="4RKRX7I9rkrcG7WYynrb-5" value="请求 dirfd 的路径" style="rounded=0;whiteSpace=wrap;html=1;" vertex="1" parent="1">
          <mxGeometry x="140" y="170" width="130" height="30" as="geometry" />
        </mxCell>
        <mxCell id="4RKRX7I9rkrcG7WYynrb-12" style="edgeStyle=none;rounded=0;orthogonalLoop=1;jettySize=auto;html=1;exitX=0;exitY=0.75;exitDx=0;exitDy=0;entryX=1;entryY=0.25;entryDx=0;entryDy=0;" edge="1" parent="1" source="4RKRX7I9rkrcG7WYynrb-6" target="4RKRX7I9rkrcG7WYynrb-9">
          <mxGeometry relative="1" as="geometry" />
        </mxCell>
        <mxCell id="4RKRX7I9rkrcG7WYynrb-6" value="索引 dirfd 路径" style="rounded=0;whiteSpace=wrap;html=1;" vertex="1" parent="1">
          <mxGeometry x="370" y="220" width="130" height="30" as="geometry" />
        </mxCell>
        <mxCell id="4RKRX7I9rkrcG7WYynrb-14" style="edgeStyle=none;rounded=0;orthogonalLoop=1;jettySize=auto;html=1;exitX=0.5;exitY=1;exitDx=0;exitDy=0;entryX=0.5;entryY=0;entryDx=0;entryDy=0;" edge="1" parent="1" source="4RKRX7I9rkrcG7WYynrb-9" target="4RKRX7I9rkrcG7WYynrb-11">
          <mxGeometry relative="1" as="geometry" />
        </mxCell>
        <mxCell id="4RKRX7I9rkrcG7WYynrb-9" value="拼接计算绝对路径" style="rounded=0;whiteSpace=wrap;html=1;" vertex="1" parent="1">
          <mxGeometry x="140" y="270" width="130" height="30" as="geometry" />
        </mxCell>
        <mxCell id="4RKRX7I9rkrcG7WYynrb-17" style="edgeStyle=none;rounded=0;orthogonalLoop=1;jettySize=auto;html=1;exitX=1;exitY=0.75;exitDx=0;exitDy=0;entryX=0;entryY=0.25;entryDx=0;entryDy=0;" edge="1" parent="1" source="4RKRX7I9rkrcG7WYynrb-11" target="4RKRX7I9rkrcG7WYynrb-15">
          <mxGeometry relative="1" as="geometry" />
        </mxCell>
        <mxCell id="4RKRX7I9rkrcG7WYynrb-11" value="open 调用" style="rounded=0;whiteSpace=wrap;html=1;" vertex="1" parent="1">
          <mxGeometry x="140" y="320" width="130" height="30" as="geometry" />
        </mxCell>
        <mxCell id="4RKRX7I9rkrcG7WYynrb-18" style="edgeStyle=none;rounded=0;orthogonalLoop=1;jettySize=auto;html=1;exitX=0;exitY=0.75;exitDx=0;exitDy=0;entryX=1;entryY=0.25;entryDx=0;entryDy=0;" edge="1" parent="1" source="4RKRX7I9rkrcG7WYynrb-15" target="4RKRX7I9rkrcG7WYynrb-16">
          <mxGeometry relative="1" as="geometry" />
        </mxCell>
        <mxCell id="4RKRX7I9rkrcG7WYynrb-15" value="处理 open 请求" style="rounded=0;whiteSpace=wrap;html=1;" vertex="1" parent="1">
          <mxGeometry x="370" y="370" width="130" height="30" as="geometry" />
        </mxCell>
        <mxCell id="4RKRX7I9rkrcG7WYynrb-16" value="完成 open 请求" style="rounded=0;whiteSpace=wrap;html=1;" vertex="1" parent="1">
          <mxGeometry x="140" y="410" width="130" height="30" as="geometry" />
        </mxCell>
        <mxCell id="4RKRX7I9rkrcG7WYynrb-19" value="返回 dirfd 路径" style="text;html=1;strokeColor=none;fillColor=none;align=center;verticalAlign=middle;whiteSpace=wrap;rounded=0;" vertex="1" parent="1">
          <mxGeometry x="300" y="260" width="96" height="30" as="geometry" />
        </mxCell>
        <mxCell id="4RKRX7I9rkrcG7WYynrb-20" value="返回 open 结果" style="text;html=1;strokeColor=none;fillColor=none;align=center;verticalAlign=middle;whiteSpace=wrap;rounded=0;" vertex="1" parent="1">
          <mxGeometry x="310" y="400" width="96" height="30" as="geometry" />
        </mxCell>
      </root>
    </mxGraphModel>
  </diagram>
</mxfile>
